 <svg  version="1.0" xmlns="http://www.w3.org/2000/svg"  width="300.000000pt" height="300.000000pt" viewBox="0 0 300.000000 300.000000"  preserveAspectRatio="xMidYMid meet">  <g transform="translate(0.000000,300.000000) scale(0.100000,-0.100000)" fill="#ffffff" stroke="none"> <path d="M680 2504 c-105 -29 -114 -53 -114 -314 0 -107 5 -501 10 -876 l9 -681 30 -48 c17 -27 45 -57 62 -68 50 -29 210 -38 753 -42 476 -3 788 6 862 26 45 12 80 44 111 102 21 40 22 54 23 264 1 184 -1 221 -12 216 -11 -4 -14 5 -13 38 0 34 2 39 9 24 8 -18 9 -17 9 8 1 16 -3 26 -9 22 -6 -4 -10 15 -10 49 0 31 5 56 10 56 6 0 10 5 10 11 0 5 -4 7 -10 4 -7 -4 -10 106 -10 324 0 314 4 362 28 336 4 -4 1 -10 -5 -12 -7 -3 -13 -21 -13 -40 0 -30 2 -33 14 -24 14 12 15 26 20 241 2 90 -14 321 -23 339 -6 10 -32 27 -58 37 -45 17 -102 18 -838 21 -675 2 -798 0 -845 -13z m1014 -27 c-5 -9 -4 -9 5 -1 8 7 97 10 279 8 275 -3 340 -8 376 -26 12 -6 28 -14 36 -18 19 -9 26 -100 10 -129 -9 -18 -8 -20 7 -14 14 5 13 1 -6 -20 l-23 -26 22 6 c19 5 21 3 13 -13 -5 -10 -8 -32 -6 -49 6 -64 2 -140 -7 -143 -6 -2 -8 -8 -5 -12 3 -5 -13 -14 -35 -20 -156 -42 -1394 -52 -1641 -14 -33 6 -37 4 -43 -21 -7 -28 21 -1353 29 -1370 8 -16 -12 1279 -20 1318 -2 12 3 17 18 17 20 1 21 2 5 14 -31 23 -20 28 45 21 35 -4 153 -10 263 -13 l199 -7 2 -43 c1 -33 -2 -42 -13 -38 -23 9 -73 -14 -80 -37 -4 -11 -6 -67 -5 -123 0 -81 -2 -103 -14 -108 -26 -10 -30 13 -34 192 -1 32 -7 47 -27 65 -26 22 -67 25 -90 6 -8 -6 -26 -2 -54 12 -45 24 -109 22 -162 -3 -31 -15 -30 -10 -30 -184 0 -130 3 -141 44 -173 24 -20 42 -24 87 -24 31 0 69 4 85 8 19 5 31 4 36 -5 6 -10 38 -14 107 -16 54 -1 112 -2 130 -3 l32 -1 1 -438 c0 -241 3 -450 6 -466 9 -52 -8 -59 -126 -52 -58 3 -153 6 -212 7 -129 2 -150 5 -177 30 -22 21 -28 10 -11 -22 8 -15 7 -19 -4 -19 -21 0 -52 35 -75 84 -18 39 -20 76 -24 631 -5 619 -9 754 -22 775 -8 13 8 11 62 -6 15 -5 15 -4 -2 7 -46 29 -50 39 -50 133 0 50 4 94 9 97 5 4 5 13 0 20 -11 19 -17 87 -9 125 4 26 15 37 53 56 26 12 72 25 102 29 30 3 256 6 503 6 341 1 446 -1 441 -10z m723 -472 c0 -20 -6 -36 -14 -39 -19 -8 -18 -1276 0 -1277 8 0 8 -2 0 -6 -7 -2 -13 -16 -13 -30 0 -13 -14 -44 -31 -68 -29 -40 -36 -44 -83 -49 -87 -10 -596 -26 -811 -26 l-203 0 -6 82 c-3 46 -7 263 -8 483 l-3 400 130 -4 c131 -3 675 15 773 26 l52 6 -2 206 c-3 199 -4 206 -23 204 -73 -7 -722 -24 -820 -21 l-120 3 0 35 0 35 450 6 c544 7 685 18 715 55 17 19 17 19 17 -21z m-245 -127 c3 -7 4 -89 4 -183 -1 -162 -2 -170 -21 -172 -11 -2 -15 0 -9 3 14 6 6 44 -14 64 -19 18 -42 22 -43 7 0 -7 -4 -1 -10 11 -10 26 -7 51 11 97 6 16 17 56 25 87 11 48 11 60 -2 77 -13 20 -13 21 20 21 19 0 37 -6 39 -12z m-1265 -31 c32 -32 45 -210 19 -272 -11 -27 -22 -35 -50 -40 -44 -9 -102 10 -121 38 -20 31 -30 191 -16 244 9 31 18 44 38 50 35 12 110 0 130 -20z m538 6 c-10 -26 -6 -283 4 -320 9 -31 8 -33 -17 -34 -15 0 -36 -2 -47 -5 -41 -8 -48 4 -23 38 21 30 23 43 23 153 0 97 -4 125 -18 145 -25 36 -22 40 34 40 44 0 50 -2 44 -17z m275 4 c0 -21 -11 -27 -31 -16 -27 14 -23 29 6 29 14 0 25 -6 25 -13z m380 8 c0 -3 -13 -53 -30 -112 -18 -63 -30 -130 -30 -165 l0 -58 -45 0 -45 0 0 63 c0 41 -10 94 -30 157 -16 52 -30 99 -30 103 0 5 17 7 38 5 36 -3 37 -5 52 -60 8 -31 18 -59 21 -62 3 -3 11 23 18 59 12 57 16 64 39 68 15 2 30 5 35 6 4 0 7 -1 7 -4z m-1060 -145 l0 -140 45 0 c43 0 45 -1 45 -30 l0 -30 -77 7 c-43 3 -79 6 -79 7 -1 1 -5 74 -9 164 l-7 162 41 0 41 0 0 -140z m845 -15 c9 -66 18 -135 22 -152 5 -32 4 -33 -30 -33 -33 0 -35 2 -41 43 -6 41 -8 43 -36 39 -25 -4 -29 -9 -32 -41 -3 -34 -5 -36 -40 -39 -36 -3 -37 -3 -29 25 5 15 16 90 27 165 l18 137 55 3 c42 2 58 -1 63 -12 4 -8 14 -69 23 -135z m-561 122 c19 -19 24 -38 29 -108 7 -89 -2 -159 -23 -184 -9 -11 -33 -15 -90 -15 l-77 0 -6 107 c-4 58 -7 132 -7 165 l0 58 75 0 c66 0 79 -3 99 -23z m309 14 c48 -19 57 -120 12 -137 -19 -8 -20 -24 0 -24 37 0 47 -92 14 -134 -19 -24 -26 -26 -104 -26 l-83 0 -1 165 -2 165 70 0 c38 0 81 -4 94 -9z m492 -281 c0 -29 -32 -41 -41 -16 -9 24 4 48 23 44 12 -2 18 -12 18 -28z m292 -655 c0 -30 -3 -58 -8 -61 -5 -3 -9 22 -9 55 0 76 15 81 17 6z"/> <path d="M624 2312 c10 -16 74 -32 126 -31 39 1 35 3 -30 13 -41 6 -81 16 -89 20 -9 6 -12 5 -7 -2z"/> <path d="M2348 2314 c-4 -3 -21 -8 -40 -11 -36 -5 -73 -22 -50 -23 24 0 102 22 108 31 6 10 -9 12 -18 3z"/> <path d="M1288 2113 c17 -2 47 -2 65 0 17 2 3 4 -33 4 -36 0 -50 -2 -32 -4z"/> <path d="M1638 2113 c17 -2 47 -2 65 0 17 2 3 4 -33 4 -36 0 -50 -2 -32 -4z"/> <path d="M1400 2085 c0 -6 37 -10 90 -10 53 0 90 4 90 10 0 6 -37 10 -90 10 -53 0 -90 -4 -90 -10z"/> <path d="M1255 2070 c-4 -6 20 -10 65 -10 45 0 69 4 65 10 -3 6 -33 10 -65 10 -32 0 -62 -4 -65 -10z"/> <path d="M1596 2071 c-6 -9 113 -23 126 -15 5 3 6 10 3 15 -8 11 -122 12 -129 0z"/> <path d="M905 1470 c-53 -7 -121 -38 -150 -70 -10 -11 -21 -18 -25 -15 -4 2 -6 -14 -6 -37 1 -23 7 -43 14 -46 7 -2 10 -8 7 -13 -4 -5 1 -6 9 -3 11 4 16 0 16 -11 0 -9 5 -13 10 -10 6 4 8 11 5 16 -8 12 -8 12 60 -16 64 -26 95 -31 95 -15 0 6 -9 10 -20 10 -11 0 -28 4 -38 9 -28 16 -56 24 -69 22 -7 -1 -13 7 -13 19 0 12 7 20 16 20 13 0 14 -3 4 -15 -10 -12 -8 -13 10 -10 12 2 38 -2 57 -10 40 -17 120 -20 157 -5 15 5 28 5 31 0 8 -13 -9 -20 -65 -27 -63 -7 -66 -24 -2 -22 81 3 129 42 85 68 -17 10 -17 10 -1 11 9 0 22 -8 28 -17 11 -17 11 -17 6 0 -3 9 0 17 7 17 7 1 -1 11 -16 24 -28 22 -84 26 -71 4 3 -5 13 -6 22 -4 10 3 24 1 32 -5 12 -8 12 -10 -5 -8 -34 2 -43 0 -61 -18 -20 -21 -56 -22 -80 -2 -11 8 -15 9 -10 2 4 -8 1 -13 -9 -13 -9 0 -14 4 -11 9 10 15 -25 22 -42 9 -12 -10 -14 -10 -8 0 5 8 0 12 -13 12 -28 0 -26 12 3 26 15 7 30 8 41 2 12 -7 21 -5 32 9 13 16 14 16 9 1 -4 -15 -1 -16 19 -8 16 6 25 6 25 0 0 -6 -6 -10 -14 -10 -8 0 -18 -4 -21 -10 -3 -5 22 1 57 14 34 13 64 29 66 36 4 10 -1 11 -14 5 -26 -11 -204 -6 -228 7 -19 10 -19 11 0 21 25 14 158 13 211 -2 54 -15 113 -69 113 -104 0 -51 -85 -97 -181 -97 -47 0 -145 25 -166 42 -9 8 -13 6 -13 -3 0 -8 9 -20 19 -26 10 -7 26 -27 35 -45 15 -28 15 -34 2 -43 -22 -17 -51 -77 -55 -112 -1 -21 5 -44 19 -63 12 -16 23 -47 25 -68 4 -35 1 -40 -32 -57 -19 -11 -39 -30 -44 -44 -5 -13 -12 -22 -14 -19 -3 2 -7 78 -11 169 -3 90 -7 166 -10 168 -2 2 -4 -119 -3 -270 0 -162 4 -266 9 -254 5 11 9 45 10 75 1 47 3 52 13 36 7 -10 24 -30 40 -44 15 -14 27 -33 27 -42 0 -10 6 -22 13 -28 15 -13 237 -18 236 -6 -1 5 -5 8 -10 7 -5 -2 -9 4 -9 12 0 25 38 18 43 -7 4 -22 4 -21 6 2 0 14 12 37 26 52 65 70 52 135 -38 193 -20 13 -25 21 -18 28 6 6 11 21 11 34 0 12 11 39 25 59 14 21 23 44 20 52 -3 7 -5 24 -5 36 0 13 -16 39 -36 59 -35 34 -36 38 -24 67 7 18 22 33 36 36 13 3 24 10 24 15 0 5 6 9 13 9 31 0 48 86 26 134 -25 54 -171 107 -264 96z m-82 -93 c-2 -4 -8 -5 -13 -2 -5 3 -12 -7 -16 -22 -12 -55 -14 -59 -24 -43 -15 23 -12 45 11 73 16 22 23 24 34 14 7 -6 11 -15 8 -20z m222 -266 c17 -9 38 -32 47 -50 22 -44 6 -86 -42 -112 -68 -37 -177 -11 -213 50 -19 32 -23 71 -7 71 6 0 10 -6 10 -13 0 -7 20 -34 43 -60 39 -42 49 -47 86 -47 57 0 96 37 87 82 -7 38 -20 53 -56 72 -26 13 -30 12 -48 -8 -27 -30 -34 -54 -16 -58 13 -3 13 -5 0 -23 -15 -20 -16 -19 -50 20 -43 49 -45 69 -8 83 62 24 115 22 167 -7z m-69 -17 c-3 -8 1 -22 9 -31 8 -8 13 -19 10 -24 -4 -5 1 -6 10 -3 12 5 13 9 4 20 -7 8 -9 17 -5 21 3 3 6 1 6 -5 0 -7 7 -12 15 -12 23 0 18 -26 -7 -38 l-23 -11 23 0 c12 -1 22 -6 22 -11 0 -6 -8 -10 -17 -8 -10 2 -17 -3 -15 -9 1 -7 -7 -13 -18 -13 -11 0 -20 5 -20 10 0 6 -10 9 -22 9 -17 -1 -19 -2 -5 -6 9 -2 17 -9 17 -14 0 -15 -16 -10 -41 12 -13 11 -18 18 -12 14 7 -3 22 -1 34 5 17 10 23 8 35 -7 13 -17 13 -17 14 5 0 31 -17 62 -35 62 -19 0 -19 6 3 29 21 24 26 25 18 5z m67 -265 c22 -6 55 -25 74 -43 30 -27 35 -37 29 -59 -17 -71 -121 -103 -248 -76 -123 27 -146 135 -38 178 34 13 136 13 183 0z"/> <path d="M960 809 c12 -8 8 -9 -15 -6 -16 3 -42 -1 -57 -9 -29 -15 -39 -27 -14 -18 8 3 17 0 21 -5 3 -6 11 -8 17 -5 6 4 17 -1 25 -11 7 -11 13 -14 13 -8 0 7 17 12 38 13 78 3 92 5 92 18 0 6 -11 12 -24 12 -13 0 -40 7 -59 15 -42 17 -58 19 -37 4z"/> <path d="M850 745 c-7 -8 -16 -12 -21 -9 -5 3 -4 -6 2 -20 19 -40 89 -53 202 -35 65 11 80 20 55 35 -8 5 -2 12 17 20 28 11 27 12 -25 11 -29 -1 -48 -3 -42 -5 23 -7 12 -24 -13 -20 -14 3 -28 1 -31 -3 -3 -5 3 -9 13 -9 12 0 14 -3 6 -8 -11 -7 -36 -8 -80 -3 -7 0 -13 6 -13 12 0 5 5 7 10 4 6 -4 6 3 -1 18 -12 27 -28 29 -53 8 -14 -12 -16 -12 -10 3 8 20 0 21 -16 1z m70 -12 c0 -15 -23 -43 -35 -43 -17 0 -18 2 -9 25 6 13 9 14 16 3 7 -9 8 -7 5 9 -3 15 -1 20 9 16 8 -3 14 -7 14 -10z"/> <path d="M2091 1436 c-8 -9 -11 -48 -9 -112 l3 -99 43 -3 42 -3 0 55 c0 53 -1 56 -25 56 -14 0 -25 -4 -25 -10 0 -5 5 -10 10 -10 16 0 12 -56 -5 -70 -9 -7 -18 -10 -22 -6 -3 3 -2 6 3 6 5 0 8 40 6 90 -2 55 0 90 6 90 6 0 12 -5 14 -11 2 -6 11 -10 20 -8 12 3 13 9 7 27 -10 25 -50 30 -68 8z"/> <path d="M1883 1433 c-8 -3 -13 -24 -13 -54 0 -31 4 -48 10 -44 6 4 10 -16 10 -52 0 -64 -14 -58 -25 12 -10 67 -36 135 -50 135 -11 0 -13 -24 -12 -115 2 -91 5 -115 16 -115 11 0 13 19 8 108 -6 104 6 117 17 19 7 -56 30 -120 44 -125 9 -3 12 29 12 117 0 67 -1 121 -2 120 -2 0 -9 -3 -15 -6z"/> <path d="M1923 1325 c2 -84 5 -115 15 -115 9 0 12 30 12 115 0 93 -3 115 -14 115 -12 0 -14 -21 -13 -115z"/> <path d="M1968 1325 c3 -94 6 -115 18 -115 10 0 14 6 10 18 -10 36 -16 197 -6 175 5 -13 12 -43 15 -68 7 -61 34 -125 52 -125 10 0 13 6 9 16 -3 9 -6 60 -6 115 0 84 -2 99 -16 99 -13 0 -15 -8 -10 -47 3 -27 8 -75 11 -108 l4 -60 -13 45 c-7 25 -19 72 -27 105 -9 37 -20 61 -29 63 -13 2 -15 -15 -12 -113z"/> <path d="M1302 1418 c-21 -21 -13 -61 22 -113 19 -27 37 -61 40 -75 3 -14 3 -20 0 -13 -3 7 -11 10 -18 7 -8 -3 -16 2 -19 10 -8 19 -37 21 -37 3 0 -8 9 -22 20 -32 26 -23 68 -13 76 19 8 33 -1 57 -36 101 -17 21 -30 47 -31 59 0 21 -1 21 -10 1 -8 -19 -9 -19 -6 -1 1 14 10 20 30 20 16 1 31 -3 34 -8 3 -5 1 -6 -5 -2 -7 4 -12 1 -12 -8 0 -9 7 -16 15 -16 18 0 20 31 3 48 -7 7 -21 12 -33 12 -12 0 -26 -5 -33 -12z"/> <path d="M1400 1313 l0 -118 35 0 c23 0 35 5 35 14 0 10 -8 12 -30 8 -18 -4 -30 -2 -30 4 0 6 5 7 10 4 6 -4 10 10 10 34 0 30 4 41 15 41 8 0 15 7 15 15 0 8 -7 15 -15 15 -11 0 -15 11 -16 38 0 30 -2 33 -9 17 -8 -19 -9 -19 -9 2 -1 20 3 22 29 17 23 -5 30 -3 30 10 0 12 -9 16 -35 16 l-35 0 0 -117z"/> <path d="M1506 1408 c-12 -55 -28 -209 -23 -214 12 -12 27 8 27 37 0 40 33 37 38 -4 2 -16 9 -27 19 -27 8 0 13 6 10 13 -2 6 -10 58 -18 115 -11 86 -16 102 -31 102 -10 0 -20 -9 -22 -22z m28 -54 c2 -27 5 -56 8 -64 3 -8 3 -12 1 -7 -7 11 -31 8 -36 -5 -4 -10 -6 -10 -6 -1 -1 6 4 15 9 18 6 3 10 31 10 62 0 68 10 65 14 -3z"/> <path d="M1596 1414 c-24 -23 -20 -45 19 -100 19 -27 35 -60 36 -74 0 -23 1 -23 9 -5 6 15 9 16 9 4 1 -9 -2 -18 -5 -21 -10 -10 -44 4 -44 18 0 8 -7 14 -15 14 -24 0 -18 -39 9 -51 17 -8 29 -8 45 0 34 19 28 72 -14 127 -20 26 -34 51 -32 57 6 18 27 20 27 3 0 -9 7 -16 15 -16 16 0 19 17 9 44 -8 21 -48 21 -68 0z"/> <path d="M1699 1403 c-7 -19 -8 -56 -3 -113 9 -84 9 -85 39 -88 42 -5 55 19 55 104 0 97 -11 124 -50 124 -24 0 -33 -6 -41 -27z m61 -99 c3 -49 4 -91 3 -93 -2 -2 -13 4 -25 15 -21 19 -21 19 -14 -1 4 -11 4 -16 -1 -12 -8 8 -5 166 4 180 3 4 10 6 16 4 7 -2 14 -38 17 -93z"/> <path d="M1923 1165 c-20 -22 -16 -45 7 -45 16 0 20 7 20 30 0 33 -8 37 -27 15z"/> <path d="M1490 1140 c0 -34 5 -37 26 -16 12 13 12 15 -4 19 -14 3 -13 6 8 15 l25 11 -27 0 c-25 1 -28 -3 -28 -29z"/> <path d="M1649 1168 c-1 -2 -3 -15 -5 -30 -2 -22 1 -28 17 -28 24 0 25 18 2 37 -17 14 -17 14 0 9 9 -3 17 -1 17 4 0 9 -28 15 -31 8z"/> <path d="M1701 1146 c-15 -18 -6 -36 17 -36 13 0 14 2 3 9 -11 7 -11 9 0 14 10 3 11 8 3 16 -8 9 -14 8 -23 -3z"/> <path d="M1749 1158 c-9 -42 -8 -48 12 -48 15 0 20 5 17 22 -2 17 -26 39 -29 26z"/> <path d="M1818 1148 c-7 -19 2 -38 18 -38 8 0 14 10 14 25 0 26 -24 35 -32 13z"/> <path d="M1863 1144 c-7 -18 11 -39 26 -30 17 11 13 46 -4 46 -9 0 -18 -7 -22 -16z"/> <path d="M2121 1147 c-17 -21 -3 -49 23 -45 15 2 21 10 21 28 0 28 -26 38 -44 17z m36 -17 c1 -11 -4 -20 -12 -20 -17 0 -28 17 -20 30 11 17 31 11 32 -10z"/> <path d="M1540 1130 c0 -15 5 -20 18 -18 9 2 17 10 17 18 0 8 -8 16 -17 18 -13 2 -18 -3 -18 -18z"/> <path d="M1763 1083 c-18 -7 -16 -33 2 -33 8 0 15 -4 15 -10 0 -5 -8 -7 -17 -3 -15 5 -16 3 -5 -8 9 -10 15 -10 24 -1 8 8 15 9 25 1 10 -9 13 -7 13 5 0 10 -3 15 -8 12 -4 -2 -16 2 -27 10 -10 8 -13 14 -7 14 7 0 12 5 12 10 0 11 -7 12 -27 3z"/> <path d="M1850 1060 c0 -27 3 -30 30 -30 22 0 30 5 30 18 0 22 -9 33 -22 26 -5 -3 -5 -11 1 -18 7 -8 4 -12 -10 -12 -16 0 -19 5 -14 23 3 13 1 23 -5 23 -5 0 -10 -13 -10 -30z"/> <path d="M1950 1065 c0 -14 -5 -25 -11 -25 -6 0 -8 9 -4 23 6 17 5 19 -5 10 -16 -15 -6 -43 15 -43 10 0 15 10 15 30 0 17 -2 30 -5 30 -3 0 -5 -11 -5 -25z"/> <path d="M1438 1050 c-3 -17 -1 -33 4 -36 4 -3 8 2 8 10 0 9 7 16 15 16 8 0 15 9 15 20 0 34 -37 25 -42 -10z"/> <path d="M1610 1051 c0 -26 4 -31 25 -31 19 0 25 5 25 21 0 12 4 17 11 13 6 -3 9 -15 6 -25 -3 -11 -1 -19 4 -19 11 0 32 50 24 58 -3 3 -5 -1 -5 -8 0 -11 -3 -11 -12 -2 -20 20 -48 15 -48 -9 0 -11 -4 -18 -10 -14 -5 3 -7 12 -4 19 3 8 1 17 -5 21 -7 4 -11 -5 -11 -24z"/> <path d="M1970 1065 c0 -8 6 -15 13 -15 8 0 7 -4 -3 -10 -13 -8 -12 -10 3 -10 9 0 17 7 17 15 0 8 -6 15 -12 15 -9 0 -8 4 2 10 13 8 12 10 -2 10 -10 0 -18 -7 -18 -15z"/> <path d="M1497 1064 c-16 -16 -7 -44 14 -44 15 0 20 5 17 22 -3 22 -19 33 -31 22z"/> <path d="M1541 1048 c-1 -22 4 -28 19 -28 13 0 20 7 20 19 0 28 -20 37 -21 9 -1 -23 -1 -23 -9 2 l-8 25 -1 -27z"/> <path d="M1623 993 c-14 -5 -18 -63 -4 -63 8 0 25 60 19 65 -2 1 -9 0 -15 -2z"/> <path d="M1824 979 c-3 -6 0 -15 7 -20 12 -7 12 -9 0 -9 -8 0 -12 -3 -8 -6 13 -14 35 5 30 25 -6 23 -18 27 -29 10z"/> <path d="M1693 964 c-7 -18 15 -36 32 -26 6 4 3 8 -7 10 -10 2 -18 8 -18 14 0 5 7 8 15 4 8 -3 15 -1 15 4 0 16 -30 11 -37 -6z"/> <path d="M1756 964 c16 -13 16 -15 2 -10 -10 3 -18 1 -18 -4 0 -6 9 -10 20 -10 13 0 20 7 20 20 0 14 -7 20 -22 20 -21 0 -21 0 -2 -16z"/> <path d="M1830 900 c0 -5 -9 -10 -19 -10 -15 0 -19 -6 -16 -20 2 -11 0 -18 -6 -15 -5 4 -9 1 -9 -4 0 -6 7 -11 15 -11 8 0 15 6 15 14 0 8 4 17 9 20 5 4 7 -3 4 -14 -3 -11 0 -20 6 -20 6 0 11 16 11 35 0 19 -2 35 -5 35 -3 0 -5 -4 -5 -10z"/> <path d="M1870 896 c0 -8 -3 -21 -6 -30 -5 -13 2 -16 41 -16 41 0 47 2 43 18 -3 11 0 19 7 19 7 0 10 -8 8 -18 -4 -14 1 -18 23 -16 22 2 30 8 32 25 2 15 -2 22 -13 22 -12 0 -16 -6 -13 -18 3 -11 0 -19 -7 -19 -7 0 -10 10 -7 22 3 20 0 22 -23 17 -20 -3 -25 -9 -22 -23 3 -11 1 -19 -4 -19 -5 0 -9 9 -9 20 0 22 -15 27 -26 8 -4 -6 -3 -8 3 -5 5 3 10 0 10 -7 0 -7 -7 -13 -14 -13 -10 0 -13 8 -8 24 3 13 1 23 -5 23 -5 0 -10 -6 -10 -14z"/> <path d="M1475 890 c-4 -6 -1 -18 6 -26 10 -12 9 -13 -6 -8 -13 5 -16 4 -11 -4 4 -7 14 -12 23 -12 11 0 14 6 9 26 -5 17 -3 23 4 19 5 -3 10 -1 10 4 0 14 -27 14 -35 1z"/> <path d="M1523 871 c3 -11 1 -19 -4 -15 -5 3 -9 0 -9 -5 0 -6 7 -11 15 -11 8 0 15 7 15 15 0 8 0 18 1 22 0 4 -5 9 -12 12 -8 2 -10 -3 -6 -18z"/> <path d="M1560 881 c0 -5 -3 -18 -6 -28 -3 -10 1 -8 11 7 14 22 15 23 10 3 -5 -17 -2 -21 12 -19 10 2 19 13 21 24 3 18 -2 22 -22 22 -14 0 -26 -4 -26 -9z"/> <path d="M1620 864 c0 -31 23 -28 28 4 2 15 -2 22 -12 22 -11 0 -16 -9 -16 -26z"/> <path d="M1676 865 c-7 -29 0 -48 15 -40 5 4 7 18 4 33 -5 26 -5 26 5 4 5 -13 14 -21 19 -18 12 8 21 46 11 46 -5 0 -11 -10 -13 -22 l-4 -23 -2 23 c-1 30 -27 28 -35 -3z"/> <path d="M1746 874 c-10 -25 -7 -34 9 -34 8 0 15 4 15 9 0 5 3 16 6 25 4 10 1 16 -9 16 -8 0 -18 -7 -21 -16z"/> <path d="M1747 822 c8 -5 9 -13 3 -22 -6 -8 -10 -22 -9 -30 0 -8 8 -1 17 17 14 26 19 29 30 17 16 -18 15 -27 -3 -20 -8 3 -15 2 -15 -3 0 -13 11 -20 26 -14 17 6 19 43 2 43 -9 0 -8 4 2 10 11 7 4 10 -25 10 -22 0 -35 -4 -28 -8z"/> <path d="M1973 822 c-18 -2 -23 -10 -22 -30 0 -27 0 -27 10 -4 5 13 12 21 17 18 4 -2 14 -1 21 3 17 11 2 18 -26 13z"/> <path d="M1469 819 c-11 -51 -10 -54 31 -55 22 -1 40 2 40 6 0 5 3 15 6 24 3 9 1 16 -4 16 -6 0 -13 -10 -15 -22 l-4 -23 -2 23 c0 12 -5 22 -10 22 -5 0 -16 3 -25 6 -9 3 -16 5 -17 3z"/> <path d="M1840 803 c0 -12 -3 -28 -6 -37 -3 -9 -2 -16 4 -16 14 0 23 41 12 59 -8 13 -9 12 -10 -6z"/> <path d="M1865 802 c3 -7 5 -18 5 -23 0 -5 7 -9 15 -9 9 0 15 9 15 24 0 19 -5 24 -20 23 -13 -1 -19 -6 -15 -15z"/> <path d="M1925 810 c3 -5 1 -10 -4 -10 -6 0 -11 -7 -11 -15 0 -8 7 -15 15 -15 9 0 15 9 15 25 0 14 -5 25 -11 25 -5 0 -7 -4 -4 -10z"/> <path d="M1577 803 c-11 -11 -8 -43 4 -43 7 0 18 8 25 18 13 16 14 16 8 0 -9 -26 11 -22 24 5 l11 22 0 -23 c1 -29 25 -24 29 6 3 20 -1 22 -46 22 -27 0 -52 -3 -55 -7z"/> <path d="M1987 683 c-14 -13 -7 -63 8 -63 8 0 15 5 15 12 0 6 3 8 8 4 4 -4 7 -13 7 -19 0 -7 11 -12 25 -12 21 0 26 5 28 34 2 18 -1 38 -7 44 -8 8 -11 8 -11 -1 0 -7 -11 -12 -25 -12 -14 0 -25 5 -25 10 0 11 -13 13 -23 3z"/> <path d="M1638 672 c-16 -2 -28 -9 -28 -17 0 -7 -3 -20 -6 -29 -3 -9 -1 -16 5 -16 6 0 11 11 11 25 0 14 5 25 10 25 6 0 10 -11 10 -25 0 -36 17 -31 23 8 2 17 4 32 3 32 0 0 -13 -1 -28 -3z"/> <path d="M1703 673 c-19 -7 -16 -53 3 -60 23 -8 38 19 18 33 -11 9 -12 13 -3 16 7 2 9 7 4 10 -6 3 -16 3 -22 1z"/> <path d="M1764 666 c-9 -23 0 -51 17 -54 18 -3 31 30 22 54 -7 18 -32 18 -39 0z"/> <path d="M1819 671 c10 -6 11 -13 2 -29 -15 -28 -14 -32 9 -32 11 0 20 5 20 10 0 6 -5 10 -10 10 -7 0 -7 6 0 19 14 28 13 31 -12 31 -17 0 -19 -3 -9 -9z"/> <path d="M1880 638 c0 -21 4 -38 9 -38 6 0 7 16 4 37 -4 26 -3 34 5 29 7 -4 12 -18 12 -32 0 -14 4 -22 10 -19 6 3 10 17 10 31 0 15 6 24 15 24 13 0 14 -4 5 -21 -7 -11 -9 -23 -6 -27 8 -8 12 -2 20 31 6 27 6 27 -39 25 l-45 -1 0 -39z"/> <path d="M1450 640 c0 -18 6 -33 15 -37 21 -7 33 6 16 16 -11 7 -11 10 0 14 10 4 10 6 2 6 -21 2 -14 21 7 21 16 0 20 -7 21 -32 l2 -33 4 30 c3 16 10 33 16 37 7 4 -9 8 -35 8 -47 0 -48 -1 -48 -30z"/> <path d="M1561 650 c0 -14 3 -31 8 -39 7 -11 11 -10 20 7 6 11 11 28 11 36 0 22 -20 20 -21 -1 0 -15 -2 -15 -9 2 -8 18 -9 18 -9 -5z"/> <path d="M817 1823 c-4 -3 -7 -55 -7 -113 0 -82 3 -110 15 -120 28 -23 35 0 35 115 0 94 -3 114 -16 119 -19 7 -19 7 -27 -1z"/> <path d="M1790 1743 c0 -28 -3 -58 -6 -67 -4 -11 0 -16 14 -16 19 0 20 5 15 58 -7 74 -23 92 -23 25z"/> <path d="M1231 1691 c3 -110 5 -121 21 -121 27 0 30 18 21 132 -7 88 -11 103 -26 106 -17 3 -18 -5 -16 -117z"/> <path d="M1550 1755 c0 -34 4 -45 15 -45 19 0 33 35 27 67 -3 14 -11 23 -23 23 -16 0 -19 -8 -19 -45z"/> <path d="M1550 1619 c0 -47 2 -50 23 -47 38 5 36 98 -3 98 -17 0 -20 -7 -20 -51z"/> <path d="M2413 1710 c-1 -33 2 -60 7 -60 5 0 9 27 9 60 -1 78 -13 78 -16 0z"/> <path d="M2421 1640 c-8 -12 -7 -180 1 -172 5 5 7 47 5 93 -1 46 -4 82 -6 79z"/> </g> </svg> 